<svg xmlns="http://www.w3.org/2000/svg" xmlns:xlink="http://www.w3.org/1999/xlink">
  <!-- home -->
  <symbol id="home" xmlns="http://www.w3.org/2000/svg" viewBox="0 0 24 24">
    <path d="M0 0h24v24H0z" fill="none" />
    <path d="M10 20v-6h4v6h5v-8h3L12 3 2 12h3v8z" />
  </symbol>
  <!-- code -->
  <symbol id="code" xmlns="http://www.w3.org/2000/svg" viewBox="0 0 24 24">
    <path d="M0 0h24v24H0V0z" fill="none" />
    <path d="M9.4 16.6L4.8 12l4.6-4.6L8 6l-6 6 6 6 1.4-1.4zm5.2 0l4.6-4.6-4.6-4.6L16 6l6 6-6 6-1.4-1.4z" />
  </symbol>
  <!-- info -->
  <symbol id="info" xmlns="http://www.w3.org/2000/svg" height="24" viewBox="0 0 24 24" width="24">
    <path d="M0 0h24v24H0z" fill="none" />
    <path d="M12 2C6.48 2 2 6.48 2 12s4.48 10 10 10 10-4.48 10-10S17.52 2 12 2zm1 15h-2v-6h2v6zm0-8h-2V7h2v2z" />
  </symbol>
  <!-- power_settings_new -->
  <symbol id="power_settings_new" xmlns="http://www.w3.org/2000/svg" viewBox="0 0 24 24">
    <path d="M0 0h24v24H0z" fill="none" />
    <path
      d="M13 3h-2v10h2V3zm4.83 2.17l-1.42 1.42C17.99 7.86 19 9.81 19 12c0 3.87-3.13 7-7 7s-7-3.13-7-7c0-2.19 1.01-4.14 2.58-5.42L6.17 5.17C4.23 6.82 3 9.26 3 12c0 4.97 4.03 9 9 9s9-4.03 9-9c0-2.74-1.23-5.18-3.17-6.83z" />
  </symbol>
  <!-- battery_full -->
  <symbol id="battery_full" xmlns="http://www.w3.org/2000/svg" viewBox="0 0 24 24">
    <path d="M0 0h24v24H0z" fill="none" />
    <path
      d="M15.67 4H14V2h-4v2H8.33C7.6 4 7 4.6 7 5.33v15.33C7 21.4 7.6 22 8.33 22h7.33c.74 0 1.34-.6 1.34-1.33V5.33C17 4.6 16.4 4 15.67 4z" />
  </symbol>
  <!-- near_me -->
  <symbol id="near_me" xmlns="http://www.w3.org/2000/svg" viewBox="0 0 24 24">
    <path d="M0 0h24v24H0V0z" fill="none" />
    <path d="M21 3L3 10.53v.98l6.84 2.65L12.48 21h.98L21 3z" />
  </symbol>
  <!-- update -->
  <symbol id="update" xmlns="http://www.w3.org/2000/svg" viewBox="0 0 24 24">
    <rect fill="none" height="24" width="24" x="0" />
    <path
      d="M21,10.12h-6.78l2.74-2.82c-2.73-2.7-7.15-2.8-9.88-0.1c-2.73,2.71-2.73,7.08,0,9.79s7.15,2.71,9.88,0 C18.32,15.65,19,14.08,19,12.1h2c0,1.98-0.88,4.55-2.64,6.29c-3.51,3.48-9.21,3.48-12.72,0c-3.5-3.47-3.53-9.11-0.02-12.58 s9.14-3.47,12.65,0L21,3V10.12z M12.5,8v4.25l3.5,2.08l-0.72,1.21L11,13V8H12.5z" />
  </symbol>
  <!-- add -->
  <symbol id="add" xmlns="http://www.w3.org/2000/svg" viewBox="0 0 24 24">
    <path d="M0 0h24v24H0z" fill="none" />
    <path d="M19 13h-6v6h-2v-6H5v-2h6V5h2v6h6v2z" />
  </symbol>
  <!-- speed -->
  <symbol id="speed" xmlns="http://www.w3.org/2000/svg" viewBox="0 0 24 24">
    <path d="M0 0h24v24H0z" fill="none" />
    <path
      d="M20.38 8.57l-1.23 1.85a8 8 0 0 1-.22 7.58H5.07A8 8 0 0 1 15.58 6.85l1.85-1.23A10 10 0 0 0 3.35 19a2 2 0 0 0 1.72 1h13.85a2 2 0 0 0 1.74-1 10 10 0 0 0-.27-10.44zm-9.79 6.84a2 2 0 0 0 2.83 0l5.66-8.49-8.49 5.66a2 2 0 0 0 0 2.83z" />
  </symbol>
  <!-- lightbulb -->
  <symbol id="lightbulb" xmlns="http://www.w3.org/2000/svg" viewBox="0 0 24 24">
    <path d="M0 0h24v24H0z" fill="none" />
    <path
      d="M9 21c0 .5.4 1 1 1h4c.6 0 1-.5 1-1v-1H9v1zm3-19C8.1 2 5 5.1 5 9c0 2.4 1.2 4.5 3 5.7V17c0 .5.4 1 1 1h6c.6 0 1-.5 1-1v-2.3c1.8-1.3 3-3.4 3-5.7 0-3.9-3.1-7-7-7z" />
  </symbol>
  <!-- flight_land -->
  <symbol id="flight_land" xmlns="http://www.w3.org/2000/svg" viewBox="0 0 24 24">
    <rect fill="none" height="24" width="24" />
    <path
      d="M2.5,19h19v2h-19V19z M19.34,15.85c0.8,0.21,1.62-0.26,1.84-1.06c0.21-0.8-0.26-1.62-1.06-1.84l-5.31-1.42l-2.76-9.02 L10.12,2v8.28L5.15,8.95L4.22,6.63L2.77,6.24v5.17L19.34,15.85z" />
  </symbol>
  <!-- flight_takeoff -->
  <symbol id="flight_takeoff" xmlns="http://www.w3.org/2000/svg" viewBox="0 0 24 24">
    <rect fill="none" height="24" width="24" />
    <path
      d="M2.5,19h19v2h-19V19z M22.07,9.64c-0.21-0.8-1.04-1.28-1.84-1.06L14.92,10l-6.9-6.43L6.09,4.08l4.14,7.17l-4.97,1.33 l-1.97-1.54l-1.45,0.39l2.59,4.49c0,0,7.12-1.9,16.57-4.43C21.81,11.26,22.28,10.44,22.07,9.64z" />
  </symbol>
  <!-- unfold_more -->
  <symbol id="unfold_more" xmlns="http://www.w3.org/2000/svg" viewBox="0 0 24 24">
    <path d="M0 0h24v24H0z" fill="none" />
    <path
      d="M12 5.83L15.17 9l1.41-1.41L12 3 7.41 7.59 8.83 9 12 5.83zm0 12.34L8.83 15l-1.41 1.41L12 21l4.59-4.59L15.17 15 12 18.17z" />
  </symbol>
  <!-- drone -->
  <symbol id="drone" xmlns="http://www.w3.org/2000/svg" viewBox="0 0 64 64">
    <path
      d="m51 39c-1.555 0-3.05.306-4.467.877l-1.204-1.445c-1.502-1.802-2.329-4.086-2.329-6.432s.827-4.63 2.329-6.433l1.204-1.445c1.417.572 2.912.878 4.467.878 6.617 0 12-5.383 12-12s-5.383-12-12-12-12 5.383-12 12c0 1.555.306 3.05.877 4.467l-1.445 1.204c-1.802 1.502-4.086 2.329-6.432 2.329s-4.63-.827-6.433-2.329l-1.444-1.204c.572-1.419.877-2.917.877-4.467 0-6.617-5.383-12-12-12s-12 5.383-12 12 5.383 12 12 12c1.555 0 3.05-.306 4.467-.877l1.204 1.445c1.502 1.802 2.329 4.086 2.329 6.432s-.827 4.63-2.329 6.433l-1.204 1.445c-1.417-.572-2.912-.878-4.467-.878-6.617 0-12 5.383-12 12s5.383 12 12 12 12-5.383 12-12c0-1.554-.306-3.049-.878-4.467l1.445-1.204c1.803-1.502 4.087-2.329 6.433-2.329s4.63.827 6.433 2.329l1.445 1.204c-.572 1.417-.878 2.912-.878 4.467 0 6.617 5.383 12 12 12s12-5.383 12-12-5.383-12-12-12zm-10-26c0-5.514 4.486-10 10-10s10 4.486 10 10-4.486 10-10 10c-1.074 0-2.114-.177-3.111-.505l1.405-1.685c.557.121 1.127.19 1.706.19 4.411 0 8-3.589 8-8s-3.589-8-8-8-8 3.589-8 8c0 .575.083 1.139.203 1.696l-1.699 1.416c-.327-.998-.504-2.038-.504-3.112zm9.707.293c-1.509-1.508-3.882-1.616-5.52-.25l-.172.143c-.002-.063-.015-.123-.015-.186 0-3.309 2.691-6 6-6s6 2.691 6 6-2.691 6-6 6c-.062 0-.123-.014-.185-.016l.142-.171c1.366-1.639 1.258-4.012-.25-5.52zm-37.707 9.707c-5.514 0-10-4.486-10-10s4.486-10 10-10 10 4.486 10 10c0 1.073-.167 2.118-.496 3.118l-1.708-1.423c.121-.556.204-1.12.204-1.695 0-4.411-3.589-8-8-8s-8 3.589-8 8 3.589 8 8 8c.575 0 1.139-.083 1.696-.203l1.415 1.699c-.997.327-2.037.504-3.111.504zm.042-4.187.143.172c-.062.002-.122.015-.185.015-3.309 0-6-2.691-6-6s2.691-6 6-6 6 2.691 6 6c0 .063-.013.124-.015.186l-.172-.144c-1.638-1.366-4.011-1.259-5.52.25-1.508 1.509-1.616 3.882-.251 5.521zm9.958 32.187c0 5.514-4.486 10-10 10s-10-4.486-10-10 4.486-10 10-10c1.074 0 2.114.177 3.111.505l-1.415 1.698c-.556-.12-1.12-.203-1.696-.203-4.411 0-8 3.589-8 8s3.589 8 8 8 8-3.589 8-8c0-.576-.083-1.14-.203-1.696l1.698-1.415c.328.998.505 2.037.505 3.111zm-9.707-.293c1.509 1.509 3.881 1.616 5.52.25l.172-.143c.002.063.015.123.015.186 0 3.309-2.691 6-6 6s-6-2.691-6-6 2.691-6 6-6c.063 0 .123.013.186.015l-.143.172c-1.366 1.639-1.258 4.012.25 5.52zm18.707-9.707c-2.813 0-5.552.992-7.713 2.792l-6.754 5.629c-.838.698-2.054.644-2.826-.128s-.827-1.987-.128-2.826l5.629-6.754c1.8-2.161 2.792-4.9 2.792-7.713s-.992-5.552-2.792-7.713l-5.629-6.754c-.699-.839-.644-2.054.128-2.826s1.987-.827 2.826-.128l6.754 5.629c2.161 1.8 4.9 2.792 7.713 2.792s5.552-.992 7.713-2.792l6.754-5.629c.838-.699 2.053-.644 2.826.128.772.772.827 1.987.128 2.826l-5.629 6.754c-1.8 2.161-2.792 4.9-2.792 7.713s.992 5.552 2.792 7.713l5.629 6.754c.699.839.644 2.054-.128 2.826s-1.988.827-2.826.128l-6.754-5.629c-2.161-1.8-4.9-2.792-7.713-2.792zm13.015 9.814.172.143c.768.641 1.698.957 2.625.957 1.049 0 2.094-.406 2.896-1.207 1.508-1.508 1.616-3.881.25-5.52l-.143-.172c.062-.002.122-.015.185-.015 3.309 0 6 2.691 6 6s-2.691 6-6 6-6-2.691-6-6c0-.063.013-.123.015-.186zm5.985 10.186c-5.514 0-10-4.486-10-10 0-1.074.177-2.114.505-3.111l1.699 1.416c-.121.556-.204 1.12-.204 1.695 0 4.411 3.589 8 8 8s8-3.589 8-8-3.589-8-8-8c-.576 0-1.14.083-1.696.203l-1.415-1.698c.997-.328 2.037-.505 3.111-.505 5.514 0 10 4.486 10 10s-4.486 10-10 10z" />
    <path
      d="m32 27c-2.757 0-5 2.243-5 5s2.243 5 5 5 5-2.243 5-5-2.243-5-5-5zm0 8c-1.654 0-3-1.346-3-3s1.346-3 3-3 3 1.346 3 3-1.346 3-3 3z" />
  </symbol>
  <!-- sensors -->
  <symbol id="sensors" xmlns="http://www.w3.org/2000/svg" viewBox="0 0 24 24">
    <rect fill="none" height="24" width="24" />
    <path
      d="M7.76,16.24C6.67,15.16,6,13.66,6,12s0.67-3.16,1.76-4.24l1.42,1.42C8.45,9.9,8,10.9,8,12c0,1.1,0.45,2.1,1.17,2.83 L7.76,16.24z M16.24,16.24C17.33,15.16,18,13.66,18,12s-0.67-3.16-1.76-4.24l-1.42,1.42C15.55,9.9,16,10.9,16,12 c0,1.1-0.45,2.1-1.17,2.83L16.24,16.24z M12,10c-1.1,0-2,0.9-2,2s0.9,2,2,2s2-0.9,2-2S13.1,10,12,10z M20,12 c0,2.21-0.9,4.21-2.35,5.65l1.42,1.42C20.88,17.26,22,14.76,22,12s-1.12-5.26-2.93-7.07l-1.42,1.42C19.1,7.79,20,9.79,20,12z M6.35,6.35L4.93,4.93C3.12,6.74,2,9.24,2,12s1.12,5.26,2.93,7.07l1.42-1.42C4.9,16.21,4,14.21,4,12S4.9,7.79,6.35,6.35z" />
  </symbol>
  <!-- settings_input_antenna -->
  <symbol id="settings_input_antenna" xmlns="http://www.w3.org/2000/svg" viewBox="0 0 24 24">
    <path d="M0 0h24v24H0z" fill="none" />
    <path
      d="M12 5c-3.87 0-7 3.13-7 7h2c0-2.76 2.24-5 5-5s5 2.24 5 5h2c0-3.87-3.13-7-7-7zm1 9.29c.88-.39 1.5-1.26 1.5-2.29 0-1.38-1.12-2.5-2.5-2.5S9.5 10.62 9.5 12c0 1.02.62 1.9 1.5 2.29v3.3L7.59 21 9 22.41l3-3 3 3L16.41 21 13 17.59v-3.3zM12 1C5.93 1 1 5.93 1 12h2c0-4.97 4.03-9 9-9s9 4.03 9 9h2c0-6.07-4.93-11-11-11z" />
  </symbol>
  <!-- angle -->
  <symbol id="angle" viewBox="0 0 510.032 510.032" xmlns="http://www.w3.org/2000/svg">
      <path
        d="m299.975 231.254 91.803-91.803c25.116 28.717 42.629 64.238 49.38 103.398l-17.109-15.216-19.936 22.418 55.744 49.574 50.176-50.177-21.213-21.213-16.916 16.916c-6.563-47.202-26.813-91.112-58.802-127.025l62.505-62.505-21.213-21.211-62.565 62.565c-35.717-31.445-79.227-51.363-125.965-57.862l16.916-16.916-21.214-21.213-50.176 50.176 49.574 55.744 22.418-19.936-15.216-17.109c38.676 6.667 73.805 23.828 102.332 48.446l-91.736 91.736c-40.139-35.504-90.274-56.271-143.762-59.548v-150.477h-135v510h510v-135h-150.477c-3.277-53.488-24.044-103.623-59.548-143.762zm29.484 143.762h-173.246l122.439-122.44c28.903 33.319 47.498 75.801 50.807 122.44zm-72.019-143.652-122.44 122.439v-173.246c46.639 3.309 89.121 21.904 122.44 50.807zm222.56 248.652h-45v-45h-30v45h-30v-30h-30v30h-30v-45h-30v45h-30v-30h-30v30h-30v-45h-30v45h-30v-30h-30v30h-75v-75h30v-30h-30v-30h45v-30h-45v-30h30v-30h-30v-30h45v-30h-45v-30h30v-30h-30v-30h45v-30h-45v-45h75v375h375z" />
  </symbol>

</svg>
