<svg xmlns="http://www.w3.org/2000/svg" xmlns:xlink="http://www.w3.org/1999/xlink">
  <!-- home -->
  <symbol id="home" xmlns="http://www.w3.org/2000/svg" viewBox="0 0 24 24">
    <path d="M0 0h24v24H0z" fill="none" />
    <path d="M10 20v-6h4v6h5v-8h3L12 3 2 12h3v8z" />
  </symbol>
  <!-- code -->
  <symbol id="code" xmlns="http://www.w3.org/2000/svg" viewBox="0 0 24 24">
    <path d="M0 0h24v24H0V0z" fill="none" />
    <path d="M9.4 16.6L4.8 12l4.6-4.6L8 6l-6 6 6 6 1.4-1.4zm5.2 0l4.6-4.6-4.6-4.6L16 6l6 6-6 6-1.4-1.4z" />
  </symbol>
  <!-- info -->
  <symbol id="info" xmlns="http://www.w3.org/2000/svg" height="24" viewBox="0 0 24 24" width="24">
    <path d="M0 0h24v24H0z" fill="none" />
    <path d="M12 2C6.48 2 2 6.48 2 12s4.48 10 10 10 10-4.48 10-10S17.52 2 12 2zm1 15h-2v-6h2v6zm0-8h-2V7h2v2z" />
  </symbol>
  <!-- power_settings_new -->
  <symbol id="power_settings_new" xmlns="http://www.w3.org/2000/svg" viewBox="0 0 24 24">
    <path d="M0 0h24v24H0z" fill="none" />
    <path
      d="M13 3h-2v10h2V3zm4.83 2.17l-1.42 1.42C17.99 7.86 19 9.81 19 12c0 3.87-3.13 7-7 7s-7-3.13-7-7c0-2.19 1.01-4.14 2.58-5.42L6.17 5.17C4.23 6.82 3 9.26 3 12c0 4.97 4.03 9 9 9s9-4.03 9-9c0-2.74-1.23-5.18-3.17-6.83z" />
  </symbol>
  <!-- battery_full -->
  <symbol id="battery_full" xmlns="http://www.w3.org/2000/svg" viewBox="0 0 24 24">
    <path d="M0 0h24v24H0z" fill="none" />
    <path
      d="M15.67 4H14V2h-4v2H8.33C7.6 4 7 4.6 7 5.33v15.33C7 21.4 7.6 22 8.33 22h7.33c.74 0 1.34-.6 1.34-1.33V5.33C17 4.6 16.4 4 15.67 4z" />
  </symbol>
  <!-- near_me -->
  <symbol id="near_me" xmlns="http://www.w3.org/2000/svg" viewBox="0 0 24 24">
    <path d="M0 0h24v24H0V0z" fill="none" />
    <path d="M21 3L3 10.53v.98l6.84 2.65L12.48 21h.98L21 3z" />
  </symbol>
  <!-- update -->
  <symbol id="update" xmlns="http://www.w3.org/2000/svg" viewBox="0 0 24 24">
    <rect fill="none" height="24" width="24" x="0" />
    <path
      d="M21,10.12h-6.78l2.74-2.82c-2.73-2.7-7.15-2.8-9.88-0.1c-2.73,2.71-2.73,7.08,0,9.79s7.15,2.71,9.88,0 C18.32,15.65,19,14.08,19,12.1h2c0,1.98-0.88,4.55-2.64,6.29c-3.51,3.48-9.21,3.48-12.72,0c-3.5-3.47-3.53-9.11-0.02-12.58 s9.14-3.47,12.65,0L21,3V10.12z M12.5,8v4.25l3.5,2.08l-0.72,1.21L11,13V8H12.5z" />
  </symbol>
  <!-- add -->
  <symbol id="add" xmlns="http://www.w3.org/2000/svg" viewBox="0 0 24 24">
    <path d="M0 0h24v24H0z" fill="none" />
    <path d="M19 13h-6v6h-2v-6H5v-2h6V5h2v6h6v2z" />
  </symbol>
  <!-- speed -->
  <symbol id="speed" xmlns="http://www.w3.org/2000/svg" viewBox="0 0 24 24">
    <path d="M0 0h24v24H0z" fill="none" />
    <path
      d="M20.38 8.57l-1.23 1.85a8 8 0 0 1-.22 7.58H5.07A8 8 0 0 1 15.58 6.85l1.85-1.23A10 10 0 0 0 3.35 19a2 2 0 0 0 1.72 1h13.85a2 2 0 0 0 1.74-1 10 10 0 0 0-.27-10.44zm-9.79 6.84a2 2 0 0 0 2.83 0l5.66-8.49-8.49 5.66a2 2 0 0 0 0 2.83z" />
  </symbol>
  <!-- lightbulb -->
  <symbol id="lightbulb" xmlns="http://www.w3.org/2000/svg" viewBox="0 0 24 24">
    <path d="M0 0h24v24H0z" fill="none" />
    <path
      d="M9 21c0 .5.4 1 1 1h4c.6 0 1-.5 1-1v-1H9v1zm3-19C8.1 2 5 5.1 5 9c0 2.4 1.2 4.5 3 5.7V17c0 .5.4 1 1 1h6c.6 0 1-.5 1-1v-2.3c1.8-1.3 3-3.4 3-5.7 0-3.9-3.1-7-7-7z" />
  </symbol>
  <!-- flight_land -->
  <symbol id="flight_land" xmlns="http://www.w3.org/2000/svg" viewBox="0 0 24 24">
    <rect fill="none" height="24" width="24" />
    <path
      d="M2.5,19h19v2h-19V19z M19.34,15.85c0.8,0.21,1.62-0.26,1.84-1.06c0.21-0.8-0.26-1.62-1.06-1.84l-5.31-1.42l-2.76-9.02 L10.12,2v8.28L5.15,8.95L4.22,6.63L2.77,6.24v5.17L19.34,15.85z" />
  </symbol>
  <!-- flight_takeoff -->
  <symbol id="flight_takeoff" xmlns="http://www.w3.org/2000/svg" viewBox="0 0 24 24">
    <rect fill="none" height="24" width="24" />
    <path
      d="M2.5,19h19v2h-19V19z M22.07,9.64c-0.21-0.8-1.04-1.28-1.84-1.06L14.92,10l-6.9-6.43L6.09,4.08l4.14,7.17l-4.97,1.33 l-1.97-1.54l-1.45,0.39l2.59,4.49c0,0,7.12-1.9,16.57-4.43C21.81,11.26,22.28,10.44,22.07,9.64z" />
  </symbol>
  <symbol id="unfold_more" xmlns="http://www.w3.org/2000/svg" viewBox="0 0 24 24">
    <path d="M0 0h24v24H0z" fill="none" />
    <path
        d="M12 5.83L15.17 9l1.41-1.41L12 3 7.41 7.59 8.83 9 12 5.83zm0 12.34L8.83 15l-1.41 1.41L12 21l4.59-4.59L15.17 15 12 18.17z" />
  </symbol>
</svg>
